<?xml version="1.0" encoding="utf-8"?>
<!-- Generator: Adobe Illustrator 22.0.1, SVG Export Plug-In . SVG Version: 6.00 Build 0)  -->
<svg version="1.1" id="Calque_1" xmlns="http://www.w3.org/2000/svg" xmlns:xlink="http://www.w3.org/1999/xlink" x="0px" y="0px"
	 viewBox="0 0 2342.7 2346.2" style="enable-background:new 0 0 2342.7 2346.2;" xml:space="preserve">
<style type="text/css">
	.st0{display:none;}
	.st1{display:inline;fill:none;}
	.st2{display:inline;}
	.st3{fill:#ECF0F1;}
	.st4{fill:#E74C3C;}
	.st5{fill:#F05E21;}
	.st6{fill:#2C3E50;}
	.st7{fill:#3498DB;}
</style>
<g class="st0">
	<title>background</title>
	<rect id="canvas_background" x="82" y="383.4" class="st1" width="582" height="402"/>
</g>
<g>
	<g class="st0">
		<g id="Layer_x0020_1_7_" class="st2">
			<path id="svg_1_7_" class="st3" d="M1947,1466.4v275l-712,79C1477,1712.4,1711,1534.4,1947,1466.4z"/>
			<path id="svg_3_7_" class="st3" d="M1447,490.4c16-36,45-59,59-93l-479,76c-36,6-69,4-90,25l-578,553h684
				C1070,1043.4,1382,565.4,1447,490.4z"/>
			<path id="svg_4_7_" class="st3" d="M1447,490.4c17,24,42,45,62,68c63,76,420,449,447,493l124.1-20.2
				c-51.4-83.9-272.1-321.8-285.1-341.8c-10-8-135-136-141-148c-43-22-104-126-148-144C1492,431.4,1463,454.4,1447,490.4z"/>
			<polygon id="svg_5_7_" class="st3" points="1352,1051.4 1567,1051.4 1567,836.4 1351,836.4 			"/>
			<path id="svg_6_7_" class="st3" d="M1654,541.4c6,12,131,140,141,148l2-290c-28-22-119-18-143,2V541.4z"/>
			<path id="svg_7_7_" class="st3" d="M1448,615.4c-95,23-63,170,38,143C1571,735.4,1544,591.4,1448,615.4z"/>
			<path id="svg_8_7_" class="st3" d="M458,1675.4c20,33,57,56,94,81c33,22,77,46,116,63c649,194.2,1296.5-959,1450.2-130.7
				c30.8-140.5,75.4-248.7-74-377.5c-220.5-155.2-408.2,15.2-651.2,166.2C1057,1686.4,904,1797.4,458,1675.4z"/>
			<path id="svg_9_7_" class="st3" d="M82,1216.2c60,152,174.3,324.1,456,441c619.3,156.3,999.1-502.9,1382.4-493.1
				c13.6,0.3,63.5,14.4,63.5,14.4c144.1,71.3,165.4,50.9,224.5,251.9c67-233.8-65.6-326.5-106.1-383.7
				c-79.7-102.4-58.7-34.6-169.4-34.2C1250,1031.5,904,1991.7,82,1216.2z"/>
			<path id="svg_11_7_" class="st3" d="M1043,1051.4c27-8,339-486,404-561c16-36,45-59,59-93l-479,76c-36,6-69,4-90,25l-578,553
				H1043z"/>
			<path id="svg_12_7_" class="st3" d="M454,1274.4c-58-37-156-118-165-216c-13-140,90-148,218-150c-244-89-459,24-372,243
				c108,270,518.4,357.3,751.4,290.3c166.6-38,175.6-127,175.6-165.3C903,1368.1,677,1415.4,454,1274.4z"/>
		</g>
	</g>
	<circle class="st3" cx="1166.2" cy="1170.5" r="1149.2"/>
	<g>
		<g id="Layer_x0020_1_6_">
			<path id="svg_1_6_" class="st4" d="M1947,1466.4v275l-712,79C1477,1712.4,1711,1534.4,1947,1466.4z"/>
			<path id="svg_3_6_" class="st5" d="M1447,490.4c16-36,45-59,59-93l-479,76c-36,6-69,4-90,25l-578,553h684
				C1070,1043.4,1382,565.4,1447,490.4z"/>
			<path id="svg_4_6_" class="st6" d="M1447,490.4c17,24,42,45,62,68c63,76,420,449,447,493l124.1-20.2
				c-51.4-83.9-272.1-321.8-285.1-341.8c-10-8-135-136-141-148c-43-22-104-126-148-144C1492,431.4,1463,454.4,1447,490.4z"/>
			<polygon id="svg_5_6_" class="st6" points="1352,1051.4 1567,1051.4 1567,836.4 1351,836.4 			"/>
			<path id="svg_6_6_" class="st4" d="M1654,541.4c6,12,131,140,141,148l2-290c-28-22-119-18-143,2V541.4z"/>
			<path id="svg_7_6_" class="st6" d="M1448,615.4c-95,23-63,170,38,143C1571,735.4,1544,591.4,1448,615.4z"/>
			<path id="svg_8_6_" class="st7" d="M458,1675.4c20,33,57,56,94,81c33,22,77,46,116,63c649,194.2,1296.5-959,1450.2-130.7
				c30.8-140.5,75.4-248.7-74-377.5c-220.5-155.2-408.2,15.2-651.2,166.2C1057,1686.4,904,1797.4,458,1675.4z"/>
			<path id="svg_9_6_" class="st6" d="M82,1216.2c60,152,174.3,324.1,456,441c619.3,156.3,999.1-502.9,1382.4-493.1
				c13.6,0.3,63.5,14.4,63.5,14.4c144.1,71.3,165.4,50.9,224.5,251.9c67-233.8-65.6-326.5-106.1-383.7
				c-79.7-102.4-58.7-34.6-169.4-34.2C1250,1031.5,904,1991.7,82,1216.2z"/>
			<path id="svg_11_6_" class="st4" d="M1043,1051.4c27-8,339-486,404-561c16-36,45-59,59-93l-479,76c-36,6-69,4-90,25l-578,553
				H1043z"/>
			<path id="svg_12_6_" class="st7" d="M454,1274.4c-58-37-156-118-165-216c-13-140,90-148,218-150c-244-89-459,24-372,243
				c108,270,518.4,357.3,751.4,290.3c166.6-38,175.6-127,175.6-165.3C903,1368.1,677,1415.4,454,1274.4z"/>
		</g>
	</g>
</g>
</svg>
